<svg xmlns="http://www.w3.org/2000/svg" width="38.488" height="38.488" viewBox="0 0 38.488 38.488"><path d="M139.346,423.217a6.02,6.02,0,0,1-6.014-6.014,1.2,1.2,0,0,1,2.406,0,3.608,3.608,0,0,0,7.217,0,1.2,1.2,0,0,1,2.406,0A6.02,6.02,0,0,1,139.346,423.217Zm0,0" transform="translate(-123.309 -384.728)" fill="#00a886"/><path d="M29.267,96.4H2.806A2.807,2.807,0,0,1,.981,91.462.967.967,0,0,1,1.1,91.37a10.782,10.782,0,0,0,3.706-8.136V78.76a11.154,11.154,0,0,1,8.608-10.9,1.2,1.2,0,1,1,.552,2.341A8.757,8.757,0,0,0,7.217,78.76v4.474A13.186,13.186,0,0,1,2.559,93.291c-.021.018-.043.036-.066.051a.4.4,0,0,0-.088.252.405.405,0,0,0,.4.4H29.267a.405.405,0,0,0,.4-.4.381.381,0,0,0-.088-.25c-.022-.018-.045-.034-.066-.053A13.134,13.134,0,0,1,26.143,88.9a1.2,1.2,0,0,1,2.173-1.031,10.73,10.73,0,0,0,2.656,3.507,1.278,1.278,0,0,1,.119.088A2.806,2.806,0,0,1,29.267,96.4Zm0,0" transform="translate(0 -62.724)" fill="#00a886"/><path d="M245.092,20.848a10.424,10.424,0,1,1,10.424-10.424A10.436,10.436,0,0,1,245.092,20.848Zm0-18.442a8.018,8.018,0,1,0,8.018,8.018A8.027,8.027,0,0,0,245.092,2.406Zm0,0" transform="translate(-217.027)" fill="#00a886"/><path d="M335.88,84.29h-4.009a1.2,1.2,0,0,1-1.2-1.2v-1.4a3.421,3.421,0,0,1,3.416-3.416.6.6,0,0,0,0-1.2h-2.213a1.2,1.2,0,0,1,0-2.406h2.213a3.007,3.007,0,0,1,0,6.014,1.012,1.012,0,0,0-1.01,1.01v.193h2.806a1.2,1.2,0,0,1,0,2.406Zm0,0" transform="translate(-305.811 -69.055)" fill="#00a886"/></svg>