<svg xmlns="http://www.w3.org/2000/svg" width="37.793" height="43" viewBox="0 0 37.793 43"><g transform="translate(-31)"><g transform="translate(31 7.643)"><path d="M67.828,109.98a3.777,3.777,0,0,0-2.814-6.3H57.678A24.427,24.427,0,0,0,58.715,97.3V96.039A5.045,5.045,0,0,0,53.676,91h-1.26a1.259,1.259,0,0,0-1.222.954L50.508,94.7c-.962,3.845-4.014,8.087-7.174,8.858a3.784,3.784,0,0,0-3.516-2.4H32.26a1.26,1.26,0,0,0-1.26,1.26V125.1a1.26,1.26,0,0,0,1.26,1.26h7.559A3.783,3.783,0,0,0,43.23,124.2l4.329,1.443a13.827,13.827,0,0,0,4.382.711H62.494a3.78,3.78,0,0,0,3.514-5.172,3.777,3.777,0,0,0,1.82-6.166,3.772,3.772,0,0,0,0-5.039Zm-26.75,12.6a1.261,1.261,0,0,1-1.26,1.26h-6.3V103.682h6.3a1.261,1.261,0,0,1,1.26,1.26ZM62.494,111.24h2.52a1.26,1.26,0,0,1,0,2.52h-2.52a1.26,1.26,0,1,0,0,2.52h2.52a1.26,1.26,0,0,1,0,2.52h-2.52a1.26,1.26,0,0,0,0,2.52,1.26,1.26,0,1,1,0,2.52H51.941a11.314,11.314,0,0,1-3.586-.582L43.6,121.67V106.082a10.151,10.151,0,0,0,5.656-3.675,18.381,18.381,0,0,0,3.7-7.1L53.4,93.52h.276a2.523,2.523,0,0,1,2.52,2.52V97.3a19.935,19.935,0,0,1-1.206,6.384H52.416a1.26,1.26,0,0,0,0,2.52h12.6a1.26,1.26,0,0,1,0,2.52h-2.52a1.26,1.26,0,0,0,0,2.52Z" transform="translate(-31 -91)" fill="#00a886"/></g><g transform="translate(36.077 35.302)"><g transform="translate(0 0)"><circle cx="1.5" cy="1.5" r="1.5" transform="translate(-0.163 -0.302)" fill="#00a886"/></g></g><g transform="translate(53.676)"><path d="M302.26,0A1.26,1.26,0,0,0,301,1.26v2.6a1.26,1.26,0,0,0,2.52,0V1.26A1.26,1.26,0,0,0,302.26,0Z" transform="translate(-301)" fill="#00a886"/></g><g transform="translate(45.659 3.405)"><path d="M209.473,42.692l-1.782-1.782a1.26,1.26,0,1,0-1.782,1.782l1.782,1.782a1.26,1.26,0,0,0,1.782-1.782Z" transform="translate(-205.54 -40.542)" fill="#00a886"/></g><g transform="translate(59.911 3.405)"><path d="M379.179,40.91a1.26,1.26,0,0,0-1.782,0l-1.782,1.781a1.26,1.26,0,0,0,1.782,1.782l1.782-1.782A1.26,1.26,0,0,0,379.179,40.91Z" transform="translate(-375.247 -40.542)" fill="#00a886"/></g></g></svg>