<svg xmlns="http://www.w3.org/2000/svg" width="31.433" height="41" viewBox="0 0 31.433 41"><g transform="translate(-56 0)"><g transform="translate(56 0)"><g transform="translate(0 0)"><path d="M86.835,5.964,81.484.6A2.033,2.033,0,0,0,80.033,0H58.05A2.05,2.05,0,0,0,56,2.05v36.9A2.05,2.05,0,0,0,58.05,41H85.383a2.05,2.05,0,0,0,2.05-2.05V7.411A2.037,2.037,0,0,0,86.835,5.964ZM86.067,38.95a.683.683,0,0,1-.683.683H58.05a.683.683,0,0,1-.683-.683V2.05a.683.683,0,0,1,.683-.683H79.917V6.15a2.05,2.05,0,0,0,2.05,2.05H84.7V6.833H81.967a.683.683,0,0,1-.683-.683V2.335L85.867,6.93a.677.677,0,0,1,.2.482Z" transform="translate(-56 0)" fill="#00a886"/><rect width="1" height="1" transform="translate(4 4)" fill="#00a886"/><rect width="13" height="1" transform="translate(7 4)" fill="#00a886"/><rect width="16" height="1" transform="translate(4 7)" fill="#00a886"/><path d="M258.25,320h-9.567a.683.683,0,0,0-.683.683v8.2a.683.683,0,0,0,.683.683h9.567a.683.683,0,0,0,.683-.683v-8.2A.683.683,0,0,0,258.25,320Zm-.683,8.2h-8.2v-6.833h8.2Z" transform="translate(-231.6 -292.667)" fill="#00a886"/><rect width="2" height="1" transform="translate(23 10)" fill="#00a886"/><rect width="1" height="1" transform="translate(26 10)" fill="#00a886"/><rect width="4" height="2" transform="translate(23 12)" fill="#00a886"/><rect width="4" height="1" transform="translate(23 15)" fill="#00a886"/><rect width="4" height="1" transform="translate(23 18)" fill="#00a886"/><rect width="4" height="1" transform="translate(23 21)" fill="#00a886"/><rect width="4" height="2" transform="translate(23 23)" fill="#00a886"/><rect width="1" height="2" transform="translate(4 27)" fill="#00a886"/><rect width="8" height="2" transform="translate(7 27)" fill="#00a886"/><rect width="11" height="1" transform="translate(4 30)" fill="#00a886"/><rect width="11" height="1" transform="translate(4 33)" fill="#00a886"/><rect width="11" height="1" transform="translate(4 36)" fill="#00a886"/><path d="M104.683,127.033h16.4a.683.683,0,0,0,.683-.683V112.683a.683.683,0,0,0-.683-.683h-16.4a.683.683,0,0,0-.683.683V126.35A.683.683,0,0,0,104.683,127.033Zm15.717-1.367H105.626l3.827-3.827,2.262,2.263a.683.683,0,0,0,.485.2h2.733v-1.367h-2.45l-.683-.683,3.817-3.82,4.783,4.783Zm-15.033-12.3H120.4v7.917l-4.3-4.305a.683.683,0,0,0-.966,0l-4.3,4.3-.9-.893a.7.7,0,0,0-.966,0l-3.605,3.606Z" transform="translate(-99.9 -102.433)" fill="#00a886"/></g></g></g></svg>