<svg xmlns="http://www.w3.org/2000/svg" width="151.874" height="45" viewBox="0 0 151.874 45"><path d="M153.428,42.247a4.31,4.31,0,0,1-4.316,4.31H7.883a4.316,4.316,0,0,1-4.321-4.31V7.877A4.322,4.322,0,0,1,7.883,3.561H149.111a4.315,4.315,0,0,1,4.316,4.316v34.37Z" transform="translate(-2.56 -2.559)" fill="#fff"/><path d="M146.552,45H5.323A5.323,5.323,0,0,1,0,39.689V5.318A5.327,5.327,0,0,1,5.323,0H146.551a5.329,5.329,0,0,1,5.323,5.318V39.687A5.323,5.323,0,0,1,146.552,45Z" fill="#a6a6a6"/><path d="M153.428,42.247a4.31,4.31,0,0,1-4.316,4.31H7.883a4.316,4.316,0,0,1-4.321-4.31V7.877A4.322,4.322,0,0,1,7.883,3.561H149.111a4.315,4.315,0,0,1,4.316,4.316v34.37Z" transform="translate(-2.56 -2.559)"/><path d="M70.709,40.142a6.523,6.523,0,0,1,3.108-5.474,6.684,6.684,0,0,0-5.263-2.845c-2.214-.233-4.362,1.324-5.49,1.324-1.15,0-2.887-1.3-4.759-1.264a7.008,7.008,0,0,0-5.9,3.6c-2.551,4.415-.648,10.9,1.8,14.47,1.222,1.749,2.651,3.7,4.52,3.63,1.829-.074,2.512-1.165,4.72-1.165,2.187,0,2.829,1.165,4.735,1.121,1.963-.03,3.2-1.755,4.379-3.519a14.423,14.423,0,0,0,2-4.077A6.311,6.311,0,0,1,70.709,40.142Zm-3.6-10.666a6.42,6.42,0,0,0,1.47-4.6,6.543,6.543,0,0,0-4.23,2.188,6.109,6.109,0,0,0-1.508,4.431A5.4,5.4,0,0,0,67.107,29.476Z" transform="translate(-36.797 -17.879)" fill="#fff"/><g transform="translate(47.76 20.254)"><path d="M182.458,87.213H179.9l-1.4-4.4h-4.867l-1.334,4.4h-2.489l4.823-14.976h2.978Zm-4.379-6.244-1.266-3.91q-.2-.6-.755-2.821h-.045q-.223.955-.711,2.821l-1.245,3.91Zm16.758.712a6.114,6.114,0,0,1-1.5,4.354,4.39,4.39,0,0,1-3.33,1.422,3.333,3.333,0,0,1-3.084-1.532v5.666h-2.4V79.964q0-1.73-.089-3.549h2.111l.134,1.712h.045a4.27,4.27,0,0,1,6.834-.424,5.97,5.97,0,0,1,1.276,3.979Zm-2.445.088a4.451,4.451,0,0,0-.711-2.6,2.459,2.459,0,0,0-2.089-1.066,2.5,2.5,0,0,0-1.611.589,2.73,2.73,0,0,0-.944,1.545,3.132,3.132,0,0,0-.111.73v1.8a2.889,2.889,0,0,0,.723,1.99,2.4,2.4,0,0,0,1.878.811,2.46,2.46,0,0,0,2.111-1.044A4.6,4.6,0,0,0,192.392,81.769Zm14.868-.088a6.114,6.114,0,0,1-1.5,4.354,4.392,4.392,0,0,1-3.331,1.422,3.333,3.333,0,0,1-3.084-1.532v5.666h-2.4V79.964q0-1.73-.089-3.549h2.111l.134,1.712h.045a4.271,4.271,0,0,1,6.835-.424,5.976,5.976,0,0,1,1.276,3.979Zm-2.446.088a4.451,4.451,0,0,0-.713-2.6,2.455,2.455,0,0,0-2.087-1.066,2.506,2.506,0,0,0-1.613.589,2.728,2.728,0,0,0-.943,1.545,3.2,3.2,0,0,0-.113.73v1.8a2.9,2.9,0,0,0,.722,1.99,2.4,2.4,0,0,0,1.88.811,2.457,2.457,0,0,0,2.111-1.044A4.6,4.6,0,0,0,204.815,81.769Zm16.336,1.243a4,4,0,0,1-1.332,3.111,5.9,5.9,0,0,1-4.08,1.311,7.124,7.124,0,0,1-3.879-.933l.555-2a6.678,6.678,0,0,0,3.467.934,3.272,3.272,0,0,0,2.111-.611,2,2,0,0,0,.758-1.632,2.091,2.091,0,0,0-.624-1.534,5.781,5.781,0,0,0-2.067-1.155q-3.934-1.467-3.935-4.29a3.787,3.787,0,0,1,1.389-3.021,5.493,5.493,0,0,1,3.679-1.178,7.271,7.271,0,0,1,3.4.711l-.6,1.956a5.947,5.947,0,0,0-2.878-.689,2.927,2.927,0,0,0-1.986.622,1.781,1.781,0,0,0-.6,1.357,1.834,1.834,0,0,0,.69,1.466,7.773,7.773,0,0,0,2.177,1.155,7.38,7.38,0,0,1,2.844,1.821,3.794,3.794,0,0,1,.915,2.6Zm7.955-4.8H226.46v5.243q0,2,1.4,2a4.216,4.216,0,0,0,1.066-.111l.066,1.822a5.438,5.438,0,0,1-1.866.266,2.877,2.877,0,0,1-2.223-.868,4.254,4.254,0,0,1-.8-2.911V78.211h-1.576v-1.8H224.1V74.433l2.357-.711V76.41h2.645Zm11.911,3.51a5.923,5.923,0,0,1-1.423,4.088,5.072,5.072,0,0,1-3.955,1.644,4.835,4.835,0,0,1-3.79-1.575,5.743,5.743,0,0,1-1.411-3.977,5.875,5.875,0,0,1,1.455-4.11,5.046,5.046,0,0,1,3.924-1.6,4.937,4.937,0,0,1,3.821,1.578A5.668,5.668,0,0,1,241.016,81.725Zm-2.488.055a4.835,4.835,0,0,0-.643-2.548,2.376,2.376,0,0,0-2.157-1.286,2.41,2.41,0,0,0-2.2,1.286,4.915,4.915,0,0,0-.644,2.593,4.82,4.82,0,0,0,.644,2.549,2.461,2.461,0,0,0,4.337-.021A4.854,4.854,0,0,0,238.529,81.78Zm10.291-3.256a4.176,4.176,0,0,0-.756-.066,2.265,2.265,0,0,0-1.956.957,3.6,3.6,0,0,0-.6,2.132v5.666h-2.4v-7.4q0-1.7-.07-3.4h2.09l.088,2.066h.066a3.7,3.7,0,0,1,1.2-1.712,2.9,2.9,0,0,1,1.735-.578,3.854,3.854,0,0,1,.6.044ZM259.553,81.3a5.628,5.628,0,0,1-.088,1.088h-7.2a3.131,3.131,0,0,0,1.045,2.446,3.572,3.572,0,0,0,2.355.754,7.964,7.964,0,0,0,2.913-.51l.376,1.664a9.008,9.008,0,0,1-3.621.667,5.25,5.25,0,0,1-3.946-1.476,5.458,5.458,0,0,1-1.433-3.966,6.185,6.185,0,0,1,1.335-4.065,4.6,4.6,0,0,1,3.776-1.732,4.025,4.025,0,0,1,3.536,1.732,5.827,5.827,0,0,1,.952,3.4Zm-2.288-.622a3.248,3.248,0,0,0-.466-1.844,2.1,2.1,0,0,0-1.911-1,2.275,2.275,0,0,0-1.91.978,3.583,3.583,0,0,0-.71,1.866l5,0Z" transform="translate(-169.812 -72.016)" fill="#fff"/></g><g transform="translate(49.164 7.374)"><path d="M176.532,34.027a15.327,15.327,0,0,1-1.726-.088V26.7a13.066,13.066,0,0,1,2.032-.153c2.752,0,4.02,1.354,4.02,3.56C180.858,32.651,179.361,34.027,176.532,34.027Zm.4-6.553a4.816,4.816,0,0,0-.95.077v5.5a6.227,6.227,0,0,0,.8.033,2.608,2.608,0,0,0,2.83-2.948A2.4,2.4,0,0,0,176.935,27.474Zm7.872,6.608a2.526,2.526,0,0,1-2.556-2.73,2.585,2.585,0,0,1,2.644-2.807,2.506,2.506,0,0,1,2.556,2.72A2.6,2.6,0,0,1,184.807,34.082Zm.045-4.675c-.852,0-1.4.8-1.4,1.911,0,1.093.557,1.889,1.387,1.889s1.387-.852,1.387-1.912C186.228,30.215,185.682,29.407,184.852,29.407Zm11.444-.753-1.66,5.307h-1.082l-.688-2.3a17.476,17.476,0,0,1-.427-1.714h-.022a11.485,11.485,0,0,1-.425,1.714l-.732,2.3h-1.093l-1.562-5.307h1.212l.6,2.523q.213.9.36,1.7h.022c.087-.447.229-1,.437-1.692l.754-2.533h.961l.722,2.479c.174.6.316,1.191.427,1.748h.032a15.277,15.277,0,0,1,.36-1.748l.645-2.479Zm6.112,5.307h-1.18V30.914c0-.939-.36-1.409-1.07-1.409a1.225,1.225,0,0,0-1.18,1.3v3.156H197.8v-3.79c0-.469-.011-.972-.044-1.518h1.038l.055.819h.033a1.907,1.907,0,0,1,1.683-.927c1.114,0,1.846.852,1.846,2.238v3.178Zm3.253,0h-1.181V26.219h1.181Zm4.3.12a2.527,2.527,0,0,1-2.556-2.73,2.585,2.585,0,0,1,2.643-2.807,2.506,2.506,0,0,1,2.556,2.72A2.6,2.6,0,0,1,209.962,34.082Zm.044-4.675c-.852,0-1.4.8-1.4,1.911,0,1.093.558,1.889,1.386,1.889s1.387-.852,1.387-1.912C211.382,30.215,210.837,29.407,210.006,29.407Zm7.25,4.554-.086-.611h-.032a1.812,1.812,0,0,1-1.552.731,1.543,1.543,0,0,1-1.626-1.562c0-1.31,1.136-1.987,3.1-1.987v-.1c0-.7-.37-1.049-1.1-1.049a2.484,2.484,0,0,0-1.387.394l-.24-.775a3.394,3.394,0,0,1,1.822-.459c1.387,0,2.087.731,2.087,2.2V32.7a8.014,8.014,0,0,0,.077,1.267h-1.064Zm-.162-2.643c-1.31,0-1.968.317-1.968,1.07a.752.752,0,0,0,.809.829,1.13,1.13,0,0,0,1.158-1.08Zm6.877,2.643-.055-.852h-.033a1.78,1.78,0,0,1-1.7.972c-1.28,0-2.228-1.125-2.228-2.709,0-1.66.983-2.829,2.324-2.829a1.6,1.6,0,0,1,1.5.721h.024V26.219h1.181v6.312c0,.513.012.994.044,1.43Zm-.174-3.123a1.284,1.284,0,0,0-1.243-1.376c-.875,0-1.409.775-1.409,1.867,0,1.07.555,1.8,1.386,1.8a1.324,1.324,0,0,0,1.266-1.409v-.884Zm8.667,3.243a2.526,2.526,0,0,1-2.555-2.73,2.585,2.585,0,0,1,2.643-2.807,2.506,2.506,0,0,1,2.556,2.72A2.6,2.6,0,0,1,232.464,34.082Zm.044-4.675c-.851,0-1.4.8-1.4,1.911,0,1.093.557,1.889,1.386,1.889s1.387-.852,1.387-1.912c0-1.08-.544-1.888-1.375-1.888Zm8.944,4.554h-1.181V30.914c0-.939-.36-1.409-1.07-1.409a1.224,1.224,0,0,0-1.178,1.3v3.156h-1.181v-3.79c0-.469-.011-.972-.044-1.518h1.038l.055.819h.033a1.906,1.906,0,0,1,1.682-.928c1.114,0,1.847.852,1.847,2.238Zm7.937-4.422h-1.3v2.577c0,.656.227.984.687.984a2.324,2.324,0,0,0,.523-.055l.033.9a2.614,2.614,0,0,1-.915.132c-.93,0-1.486-.513-1.486-1.857V29.539h-.774v-.884h.774v-.972l1.158-.35v1.321h1.3v.886Zm6.245,4.422h-1.178V30.937c0-.95-.359-1.43-1.07-1.43a1.157,1.157,0,0,0-1.181,1.256v3.2h-1.179V26.219H252.2v3.188h.024a1.79,1.79,0,0,1,1.6-.863c1.123,0,1.81.873,1.81,2.261Zm6.4-2.37h-3.54a1.523,1.523,0,0,0,1.673,1.572,3.988,3.988,0,0,0,1.431-.251l.183.819a4.432,4.432,0,0,1-1.781.327,2.464,2.464,0,0,1-2.643-2.675,2.592,2.592,0,0,1,2.51-2.85,2.229,2.229,0,0,1,2.207,2.523A2.274,2.274,0,0,1,262.032,31.591Zm-1.082-.841c0-.819-.413-1.4-1.167-1.4a1.4,1.4,0,0,0-1.29,1.4h2.457Z" transform="translate(-174.806 -26.219)" fill="#fff"/></g></svg>