<svg xmlns="http://www.w3.org/2000/svg" xmlns:xlink="http://www.w3.org/1999/xlink" width="152.264" height="45" viewBox="0 0 152.264 45"><defs><clipPath id="a"><path d="M482.722,419.156l-6.2-3.581-11.965-6.909c-.664-.384-1.326-.151-1.326.65v28.147c0,.6.473.86,1.05.527l12.241-7.068,6.2-3.581,5.962-3.442c.7-.4.632-.958.042-1.276S482.722,419.156,482.722,419.156Z" transform="translate(-463.228 -408.486)"/></clipPath><linearGradient id="b" x1="1.441" y1="1.519" x2="1.441" y2="1.436" gradientUnits="objectBoundingBox"><stop offset="0" stop-color="#257cb0"/><stop offset="0.286" stop-color="#4a93b5"/><stop offset="0.767" stop-color="#78bcbb"/><stop offset="1" stop-color="#89cfbd"/></linearGradient><linearGradient id="d" x1="1.103" y1="2.982" x2="1.187" y2="2.982" gradientUnits="objectBoundingBox"><stop offset="0" stop-color="#52c1ad"/><stop offset="1" stop-color="#dee89a"/></linearGradient><linearGradient id="f" x1="1.145" y1="1.94" x2="1.145" y2="1.857" gradientUnits="objectBoundingBox"><stop offset="0" stop-color="#ec413d"/><stop offset="0.167" stop-color="#da4452"/><stop offset="0.575" stop-color="#b0487a"/><stop offset="0.862" stop-color="#954a92"/><stop offset="1" stop-color="#8a4a9d"/></linearGradient><linearGradient id="h" x1="0.704" y1="4.18" x2="0.704" y2="4.097" gradientUnits="objectBoundingBox"><stop offset="0" stop-color="#f58879"/><stop offset="0.119" stop-color="#f69079"/><stop offset="0.713" stop-color="#fcb877"/><stop offset="1" stop-color="#fec874"/></linearGradient></defs><g transform="translate(-2.86 -0.814)"><path d="M155.124,39.732c0,3.358-3.013,6.082-6.729,6.082H9.591c-3.717,0-6.731-2.723-6.731-6.082V6.9C2.86,3.537,5.874.814,9.591.814h138.8c3.716,0,6.729,2.723,6.729,6.081V39.732Z" transform="translate(0 0)"/><g transform="translate(13.178 9.951)" clip-path="url(#a)"><path d="M463.24,387.346V417.82l15.367-15.237Z" transform="translate(-463.24 -387.82)" fill="url(#b)"/></g><g transform="translate(13.178 9.951)" clip-path="url(#a)"><path d="M482.734,393.657l-6.2-3.581L463.24,382.4v.111l15.367,15.237Z" transform="translate(-463.24 -382.987)" fill="url(#d)"/></g><g transform="translate(13.178 9.951)" clip-path="url(#a)"><path d="M463.24,1082.407v.111l13.291-7.674,6.2-3.581-4.127-4.092Z" transform="translate(-463.24 -1052.407)" fill="url(#f)"/></g><g transform="translate(13.178 9.951)" clip-path="url(#a)"><path d="M1152.975,884.566l-4.127,4.093,4.127,4.092,7.089-4.092Z" transform="translate(-1133.481 -873.895)" fill="url(#h)"/></g><path d="M1930.743,751.955a3.833,3.833,0,0,1-1.581-.319,2.979,2.979,0,0,1-1.2-.982h-.1a11.929,11.929,0,0,1,.1,1.471v3.647h-1.342V742.93h1.091l.186,1.213h.065a3.12,3.12,0,0,1,1.205-1.051,3.66,3.66,0,0,1,1.577-.324,3.276,3.276,0,0,1,2.721,1.2,6.419,6.419,0,0,1-.016,6.772A3.281,3.281,0,0,1,1930.743,751.955Zm-.194-8.046a2.379,2.379,0,0,0-1.965.752,3.872,3.872,0,0,0-.623,2.394v.3a4.435,4.435,0,0,0,.623,2.673,2.368,2.368,0,0,0,2,.8,2.077,2.077,0,0,0,1.8-.93,4.411,4.411,0,0,0,.651-2.564,4.246,4.246,0,0,0-.651-2.543A2.14,2.14,0,0,0,1930.549,743.909Zm6.982,7.884h-1.342V739.211h1.342Zm7.717,0-.267-1.261h-.064a3.718,3.718,0,0,1-1.322,1.128,4.022,4.022,0,0,1-1.645.3,2.963,2.963,0,0,1-2.066-.679,2.476,2.476,0,0,1-.748-1.932q0-2.684,4.294-2.814l1.5-.049v-.55a2.247,2.247,0,0,0-.449-1.54,1.845,1.845,0,0,0-1.435-.5,5.846,5.846,0,0,0-2.507.679l-.413-1.027a6.308,6.308,0,0,1,1.436-.558,6.213,6.213,0,0,1,1.565-.2,3.376,3.376,0,0,1,2.349.7,2.938,2.938,0,0,1,.764,2.256v6.048h-.995Zm-3.032-.946a2.726,2.726,0,0,0,1.969-.687,2.545,2.545,0,0,0,.716-1.925v-.8l-1.343.056a4.884,4.884,0,0,0-2.308.5,1.5,1.5,0,0,0-.707,1.371,1.38,1.38,0,0,0,.441,1.107A1.828,1.828,0,0,0,1942.216,750.847Zm4.806-7.917h1.439l1.941,5.054a19.312,19.312,0,0,1,.793,2.5h.065q.105-.413.44-1.412t2.2-6.141h1.44l-3.809,10.092a5.036,5.036,0,0,1-1.322,2.123,2.812,2.812,0,0,1-1.855.626,5.422,5.422,0,0,1-1.214-.137v-1.075a4.693,4.693,0,0,0,1,.1,2.05,2.05,0,0,0,1.973-1.553l.493-1.261Zm-41.143.823a3.019,3.019,0,0,1-.241,5.135,1.3,1.3,0,0,0-.519.909,1.017,1.017,0,0,0,.483.8l.667.518a3.228,3.228,0,0,1,1.556,2.6c0,1.742-1.687,3.5-4.875,3.5-2.688,0-3.985-1.279-3.985-2.651a2.667,2.667,0,0,1,1.427-2.261,7.993,7.993,0,0,1,3.54-.853,1.94,1.94,0,0,1-.556-1.259,1.675,1.675,0,0,1,.185-.724c-.2.019-.408.037-.594.037a2.93,2.93,0,0,1-3.076-2.91,3.333,3.333,0,0,1,1.186-2.484,5.054,5.054,0,0,1,3.319-1.02h3.817l-1.186.667h-1.149Zm-1.317,8.231a2.868,2.868,0,0,0-.426-.019,7.418,7.418,0,0,0-1.947.3,2.081,2.081,0,0,0-1.594,1.909c0,1.315,1.28,2.262,3.263,2.262,1.778,0,2.725-.854,2.725-2C1906.583,753.484,1905.971,752.986,1904.562,751.985Zm.538-3.523a1.875,1.875,0,0,0,.462-1.353c0-1.334-.8-3.41-2.335-3.41a1.732,1.732,0,0,0-1.3.612,2.142,2.142,0,0,0-.408,1.372c0,1.242.723,3.3,2.318,3.3A1.9,1.9,0,0,0,1905.1,748.462Zm-10.891,3.226a4.367,4.367,0,0,1-4.515-4.368,4.586,4.586,0,0,1,4.794-4.5,4.327,4.327,0,0,1,4.422,4.367A4.522,4.522,0,0,1,1894.208,751.688Zm2.313-1.5a3.348,3.348,0,0,0,.556-2.055c0-1.629-.777-4.738-3.072-4.738a2.576,2.576,0,0,0-1.665.63,2.8,2.8,0,0,0-.852,2.258c0,1.831.907,4.847,3.147,4.847A2.364,2.364,0,0,0,1896.521,750.189Zm-12.344,1.5a4.367,4.367,0,0,1-4.516-4.368,4.586,4.586,0,0,1,4.794-4.5,4.327,4.327,0,0,1,4.422,4.367A4.522,4.522,0,0,1,1884.177,751.688Zm2.314-1.5a3.354,3.354,0,0,0,.555-2.055c0-1.629-.778-4.738-3.073-4.738a2.576,2.576,0,0,0-1.665.63,2.8,2.8,0,0,0-.851,2.258c0,1.831.906,4.847,3.147,4.847A2.367,2.367,0,0,0,1886.491,750.189Zm-8.244,1.209-2.661.614a19.724,19.724,0,0,1-3.07.315c-5.136,0-7.089-3.777-7.089-6.736,0-3.609,2.772-6.957,7.517-6.957a10.72,10.72,0,0,1,2.846.391,7.259,7.259,0,0,1,2.456,1.154l-1.545,1.47-.651.148.465-.744a5.319,5.319,0,0,0-3.982-1.748,5.139,5.139,0,0,0-5.155,5.489,6.58,6.58,0,0,0,6.586,6.79,5.539,5.539,0,0,0,2.363-.465v-2.995l-2.809.149,1.488-.8h3.945l-.483.465a.434.434,0,0,0-.186.3c-.019.168-.037.708-.037.894V751.4h0Z" transform="translate(-1820.822 -721.283)" fill="#f9f9f9"/><path d="M3760.173,732.8c-.614-.056-.743-.167-.743-.893V721.372c0-.04.006-.081.01-.12.075-.651.261-.763.838-1.1h-2.662l-1.4.67h1.423v11.489c0,.371-.073.428-.5.985h3.294l.688-.408C3760.807,732.851,3760.49,732.833,3760.173,732.8Zm7.571.171c-.2.111-.406.241-.608.333a4.306,4.306,0,0,1-1.794.351,3.949,3.949,0,0,1-2.458-.721,4.782,4.782,0,0,1-1.884-3.9,4.188,4.188,0,0,1,4.231-4.268,3.589,3.589,0,0,1,1.9.518,3.062,3.062,0,0,1,1.292,1.828l-4.341,1.756-1.423.111c.461,2.347,2.05,3.713,3.806,3.713a4.776,4.776,0,0,0,2.254-.646Zm-1.736-5.507c.351-.129.535-.24.535-.5a1.833,1.833,0,0,0-1.83-1.589,2.276,2.276,0,0,0-2.125,2.568c0,.314.037.647.056.98Zm3.52-2.57v1.219h-.148v-1.219h-.4v-.126h.955v.126Zm1.663,1.219v-1.231h-.007l-.375,1.231h-.116l-.378-1.231h0v1.231h-.134v-1.346h.23l.342,1.088h0l.337-1.088h.234v1.346Z" transform="translate(-3669.235 -703.217)" fill="#f9f9f9"/><path d="M1870.507,409.145h-.925a6.091,6.091,0,0,0-.263-1.081h-1.335a5.6,5.6,0,0,0-.271,1.081h-.87q0-.113.674-1.849a14.529,14.529,0,0,0,.675-1.913h1.092a15.94,15.94,0,0,0,.611,1.885A16.534,16.534,0,0,1,1870.507,409.145Zm-1.335-1.633a16.3,16.3,0,0,1-.494-1.612h-.046q0,.113-.511,1.612Zm5.061,1.633h-.714a7.044,7.044,0,0,0-.795-1.251,6.89,6.89,0,0,1-.947-1.632h-.046a10.158,10.158,0,0,1,.072,1.144q0,.714.04,1.739h-.711q.043-.9.043-1.967,0-1.055-.043-1.794h.858a5.429,5.429,0,0,0,.714,1.222,7.187,7.187,0,0,1,.872,1.54h.043a10.9,10.9,0,0,1-.069-1.156q0-.783-.04-1.606h.723q-.041.716-.041,1.794T1874.233,409.145Zm4.187-2.011a2.132,2.132,0,0,1-.526,1.433,1.837,1.837,0,0,1-1.474.612q-.428,0-1.179-.035.038-.873.038-1.967,0-1.051-.038-1.794h.506q.124,0,.37-.009t.321-.009a1.948,1.948,0,0,1,1.513.52A1.8,1.8,0,0,1,1878.421,407.134Zm-.789.124a1.393,1.393,0,0,0-.323-.935,1.228,1.228,0,0,0-.988-.38,3.017,3.017,0,0,0-.341.026q.029.578.029,1.208,0,.691.029,1.37a1.911,1.911,0,0,0,.376.038,1.092,1.092,0,0,0,.92-.386A1.489,1.489,0,0,0,1877.632,407.258Zm4.65,1.887h-.855a5.669,5.669,0,0,0-.514-1.263.673.673,0,0,0-.578-.24q-.168,0-.321,0,0,.743.026,1.5h-.8q.037-.873.038-1.967,0-1.051-.038-1.794h.5q.087,0,.362-.009t.51-.009q1.326,0,1.326.907a1.018,1.018,0,0,1-.757,1v.043a.9.9,0,0,1,.511.455A10.067,10.067,0,0,1,1882.282,409.145Zm-1.083-2.658q0-.575-.74-.575a2.541,2.541,0,0,0-.479.04q.032.448.032,1.167c.106,0,.2.006.269.006Q1881.2,407.126,1881.2,406.487Zm5.225.708a2.075,2.075,0,0,1-.543,1.471,1.764,1.764,0,0,1-1.344.584,1.7,1.7,0,0,1-1.277-.536,1.888,1.888,0,0,1-.514-1.362,2.074,2.074,0,0,1,.543-1.471,1.763,1.763,0,0,1,1.344-.584,1.7,1.7,0,0,1,1.277.534A1.886,1.886,0,0,1,1886.423,407.2Zm-.8.084a1.492,1.492,0,0,0-.309-.98.952.952,0,0,0-.763-.375.88.88,0,0,0-.716.378,1.509,1.509,0,0,0-.3.956,1.489,1.489,0,0,0,.311.978.951.951,0,0,0,.761.377.88.88,0,0,0,.717-.38A1.51,1.51,0,0,0,1885.626,407.279Zm2.431,1.867h-.818q.038-.9.038-1.967,0-1.055-.038-1.794h.818q-.037.728-.038,1.794Q1888.019,408.267,1888.057,409.145Zm4.188-2.011a2.132,2.132,0,0,1-.526,1.433,1.837,1.837,0,0,1-1.474.612q-.428,0-1.179-.035.038-.873.038-1.967,0-1.051-.038-1.794h.506q.124,0,.37-.009t.321-.009a1.948,1.948,0,0,1,1.513.52A1.8,1.8,0,0,1,1892.245,407.134Zm-.788.124a1.393,1.393,0,0,0-.324-.935,1.227,1.227,0,0,0-.988-.38,3.011,3.011,0,0,0-.341.026q.029.578.029,1.208,0,.691.029,1.37a1.91,1.91,0,0,0,.375.038,1.091,1.091,0,0,0,.92-.386A1.488,1.488,0,0,0,1891.456,407.258Zm6.344,1.887h-.925a6.089,6.089,0,0,0-.264-1.081h-1.335a5.6,5.6,0,0,0-.271,1.081h-.87q0-.113.675-1.849a14.525,14.525,0,0,0,.674-1.913h1.092a15.964,15.964,0,0,0,.611,1.885A16.642,16.642,0,0,1,1897.8,409.145Zm-1.335-1.633a16.268,16.268,0,0,1-.494-1.612h-.046q0,.113-.511,1.612Zm4.7-1.144a1.126,1.126,0,0,1-.513,1.02,2.282,2.282,0,0,1-1.258.329c-.09,0-.155,0-.193-.006q0,.543.032,1.433h-.812q.037-.835.038-1.967,0-1.04-.038-1.794h.5q.107,0,.41-.009t.526-.009a1.654,1.654,0,0,1,.927.249A.841.841,0,0,1,1901.171,406.369Zm-.745.159q0-.618-.821-.618a2.329,2.329,0,0,0-.433.043q.032.546.032,1.237c.048,0,.1.006.167.006Q1900.425,407.2,1900.425,406.527Zm4.211-.159a1.127,1.127,0,0,1-.513,1.02,2.283,2.283,0,0,1-1.259.329c-.091,0-.155,0-.194-.006q0,.543.032,1.433h-.812q.038-.835.038-1.967,0-1.04-.038-1.794h.5q.107,0,.41-.009t.526-.009a1.654,1.654,0,0,1,.927.249A.84.84,0,0,1,1904.636,406.369Zm-.745.159q0-.618-.82-.618a2.325,2.325,0,0,0-.433.043q.032.546.031,1.237c.048,0,.1.006.167.006Q1903.891,407.2,1903.89,406.527Zm6.411.668a2.074,2.074,0,0,1-.543,1.471,1.761,1.761,0,0,1-1.343.584,1.7,1.7,0,0,1-1.277-.536,1.889,1.889,0,0,1-.514-1.362,2.073,2.073,0,0,1,.543-1.471,1.762,1.762,0,0,1,1.343-.584,1.7,1.7,0,0,1,1.277.534A1.887,1.887,0,0,1,1910.3,407.2Zm-.8.084a1.492,1.492,0,0,0-.309-.98.951.951,0,0,0-.763-.375.881.881,0,0,0-.716.378,1.51,1.51,0,0,0-.295.956,1.488,1.488,0,0,0,.311.978.951.951,0,0,0,.761.377.88.88,0,0,0,.717-.38A1.512,1.512,0,0,0,1909.5,407.279Zm4.714,1.867h-.714a7.047,7.047,0,0,0-.794-1.251,6.878,6.878,0,0,1-.948-1.632h-.046a10.154,10.154,0,0,1,.072,1.144q0,.714.041,1.739h-.711q.043-.9.043-1.967,0-1.055-.043-1.794h.858a5.44,5.44,0,0,0,.714,1.222,7.179,7.179,0,0,1,.873,1.54h.043a10.936,10.936,0,0,1-.069-1.156q0-.783-.04-1.606h.723q-.041.716-.041,1.794T1914.218,409.145Z" transform="translate(-1822.206 -395.417)" fill="#f9f9fa"/></g></svg>