<svg xmlns="http://www.w3.org/2000/svg" width="312.497" height="230" viewBox="0 0 312.497 230"><g transform="translate(-143.508 -95.18)"><path d="M151.27,318.07h-7.762V300.158h35.107c26.868,0,44.064,15.643,44.064,42.511s-17.2,42.87-44.064,42.87H159.987c-6.09,0-8.717-2.627-8.717-8.717Zm24,49.557h2.508c14.091,0,22.689-8.6,22.689-24.957,0-16.241-8.956-24.6-22.689-24.6h-5.135V365a2.39,2.39,0,0,0,2.627,2.627" transform="translate(0 -85.436)" fill="#009982"/><path d="M288.968,361.01a2.39,2.39,0,0,0-2.627-2.627H281.8V341.068H300.91c6.09,0,8.717,2.627,8.717,8.717v32.839a2.389,2.389,0,0,0,2.627,2.627h4.538v17.315H297.685c-6.09,0-8.717-2.627-8.717-8.717Z" transform="translate(-57.642 -102.487)" fill="#009982"/><path d="M482.226,338.653c12.539,0,17.793,7.165,17.793,7.165h.239v-.836c0-1.672,1.911-4.9,6.568-4.9H523.7V357.4h-2.549c-1.552,0-2.627.836-2.627,2.269v36.3c0,22.45-17.912,30.69-34.749,30.69a54.4,54.4,0,0,1-23.286-5.493l5.971-16.121a40.85,40.85,0,0,0,17.195,3.941c7.4,0,14.211-2.747,14.211-11.823v-.955c0-.716.12-2.269.12-2.269h-.239c-3.583,3.941-8.24,5.851-15.4,5.851-18.509,0-27.7-15.165-27.7-30.928,0-15.643,8.956-30.212,27.584-30.212m16.121,30.45c0-10.867-5.732-13.255-11.941-13.255-7.284,0-10.986,5.254-10.986,12.3,0,7.643,3.582,14.449,11.821,14.449,5.374,0,11.106-2.746,11.106-13.494" transform="translate(-129.682 -101.481)" fill="#009982"/><path d="M604.684,361h.836v-.716c0-5.851-2.746-8-7.881-8-2.627,0-5.373.6-5.373,2.985v1.341H573.159v-5.4c0-13.732,17.434-14.449,24.48-14.449,21.495,0,28.54,10.986,28.54,25.077v19.079a2.39,2.39,0,0,0,2.627,2.627h4.538v17.315H615.432a7.793,7.793,0,0,1-8.12-7.614v-1.075h-.239s-4.3,8.956-17.2,8.956c-11.463,0-20.9-7.642-20.9-19.822,0-18.27,26.152-20.3,35.7-20.3m-9.076,24.361c5.374,0,10.15-5.851,10.15-10.867v-.955h-1.91c-6.568,0-14.091,1.792-14.091,6.687,0,2.866,1.792,5.135,5.851,5.135" transform="translate(-177.339 -100.691)" fill="#009982"/><path d="M366.284,338.653c12.538,0,17.793,7.165,17.793,7.165h.239v-.836c0-1.672,1.911-4.9,6.568-4.9h16.956V357.4h-2.627c-1.553,0-2.627.836-2.627,2.269v36.3c0,22.45-17.912,30.69-34.75,30.69a54.4,54.4,0,0,1-23.286-5.493l5.971-16.121a40.85,40.85,0,0,0,17.2,3.941c7.4,0,14.211-2.747,14.211-11.823v-.955c0-.716.119-2.269.119-2.269h-.239c-3.583,3.941-8.24,5.851-15.405,5.851-18.509,0-27.7-15.165-27.7-30.928,0-15.643,8.956-30.212,27.585-30.212M382.4,369.1c0-10.867-5.732-13.255-11.941-13.255-7.284,0-10.986,5.254-10.986,12.3,0,7.643,3.583,14.449,11.823,14.449,5.374,0,11.105-2.746,11.105-13.494" transform="translate(-81.357 -101.481)" fill="#009982"/><path d="M317.474,123.315l.019.005a44.931,44.931,0,0,1,58.57-24.841c.027.013.035.017.053.024a45.039,45.039,0,0,1,21.617,18.4c9.057,14.953,9.912,32.988,5.166,50.022a105.878,105.878,0,0,1-37.189,50.147c-.291.171-.587.351-.879.521.082-.166.163-.333.241-.5A29.122,29.122,0,0,0,350.966,178.4c-30.51-9.239-43.435-30.537-33.492-55.086" transform="translate(-71.135 0)" fill="#95c11f" fill-rule="evenodd"/><path d="M261.231,151.137l.019,0a44.93,44.93,0,0,1,58.569-24.84c.033-.013.036-.012.054.024a45.028,45.028,0,0,1,21.615,18.4c9.058,14.953,9.913,32.988,5.167,50.022a105.872,105.872,0,0,1-37.188,50.146c-.29.172-.587.351-.879.521.081-.166.162-.332.241-.5a29.123,29.123,0,0,0-14.106-38.688c-30.511-9.239-43.436-30.537-33.492-55.086" transform="translate(-47.692 -11.597)" fill="#a6d6cc" fill-rule="evenodd"/><path d="M271.442,238.348l1.042-2.112c.079-.162.159-.324.235-.486A28.412,28.412,0,0,0,259,198.027c-16.759-5.085-28.495-13.793-33.941-25.185-4.407-9.218-4.392-19.88.044-30.833l.236-.581.023.006a45.751,45.751,0,0,1,59.256-24.653l.054.024a45.463,45.463,0,0,1,21.957,18.687c8.541,14.1,10.4,32.064,5.243,50.581A106.49,106.49,0,0,1,274.422,236.6l-.06.04-.34.2c-.181.108-.363.216-.544.321Zm-45.25-95.224c-4.05,10.367-4,20.418.152,29.1,5.274,11.033,16.727,19.489,33.118,24.453l.094.036a29.837,29.837,0,0,1,15.211,37.852,105.023,105.023,0,0,0,35.751-48.923c5.039-18.09,3.231-35.655-5.1-49.417a44.049,44.049,0,0,0-21.275-18.106.758.758,0,0,1-.078-.034,44.325,44.325,0,0,0-57.617,24.458l-.235.581Z" transform="translate(-32.619 -7.614)" fill="#95c11f"/></g></svg>