<svg xmlns="http://www.w3.org/2000/svg" width="113.832" height="101.966" viewBox="0 0 113.832 101.966"><g transform="translate(1470.984 -722)"><path d="M375.047,106.137l.012,0a27.312,27.312,0,0,1,35.6-15.1c.02-.008.022-.007.032.015a27.375,27.375,0,0,1,13.14,11.183c5.506,9.089,6.026,20.053,3.14,30.407a64.357,64.357,0,0,1-22.605,30.483c-.177.1-.357.214-.535.317.05-.1.1-.2.147-.3a17.7,17.7,0,0,0-8.575-23.517c-18.546-5.616-26.4-18.563-20.359-33.485Z" transform="translate(-1779.939 527.789) rotate(17)" fill="#93d500" fill-rule="evenodd"/><path d="M375.381,108.98l.014,0a31.853,31.853,0,0,1,41.521-17.61c.024-.01.026-.008.038.017a31.926,31.926,0,0,1,15.324,13.042c6.421,10.6,7.028,23.386,3.662,35.461a75.055,75.055,0,0,1-26.363,35.55c-.206.122-.416.249-.624.37.058-.118.115-.236.171-.355a20.645,20.645,0,0,0-10-27.427c-21.629-6.55-30.792-21.648-23.743-39.052Z" transform="translate(-1749.939 527.789) rotate(17)" fill="#7bd9c1" fill-rule="evenodd"/></g></svg>